<?xml version="1.0" encoding="utf-8"?>
<!-- Generator: Adobe Illustrator 24.1.3, SVG Export Plug-In . SVG Version: 6.00 Build 0)  -->
<svg version="1.2" baseProfile="tiny" id="Layer_2" xmlns="http://www.w3.org/2000/svg" xmlns:xlink="http://www.w3.org/1999/xlink"
	 x="0px" y="0px" viewBox="0 0 762 760" overflow="visible" xml:space="preserve">
<circle fill="#EDA33C" stroke="#F8DE59" stroke-width="42" stroke-miterlimit="10" cx="381.3" cy="380" r="356"/>
<path display="none" fill="#EDA43D" d="M224.7,116.7v154.4h313.6V116.7H224.7z M231.6,263.3l4.4-134.9l61.2,81.4l84.4-86.5
	l85.5,87.6l60.9-81.8l2.4,134.2H231.6z"/>
<path fill="none" stroke="#000000" stroke-width="14.9533" stroke-miterlimit="10" d="M523.7,133c-17.8,25.2-35.7,50.3-53.5,75.5
	c-1.2,1.7-4.1,1.9-5.6,0.4c-26.7-27.6-53.5-55.2-80.2-82.8c-1.4-1.4-3.9-1.4-5.3,0c-26.7,27.6-53.5,55.2-80.2,82.8
	c-1.5,1.6-4.3,1.4-5.6-0.4c-18.1-25.4-36.2-50.8-54.2-76.2c-1.8-2.6-6.4-1.4-6.4,1.6v126.4c0,1.7,1.5,3,3.5,3H527
	c1.9,0,3.5-1.4,3.5-3c-0.1-41.9-0.2-83.8-0.3-125.7C530.1,131.5,525.6,130.4,523.7,133z"/>
<g>
	<path fill="none" stroke="#000000" stroke-width="14.2911" stroke-miterlimit="10" d="M254.2,561h255.3c1.6,0,2.8-1.3,2.8-2.8
		V302.8c0-1.6-1.3-2.8-2.8-2.8H254.2c-1.6,0-2.8,1.3-2.8,2.8v255.3C251.3,559.7,252.6,561,254.2,561z"/>
	<path fill="none" stroke="#000000" stroke-width="14.2911" stroke-miterlimit="10" d="M512.2,561.3H251.3
		c-6.2,18.8-12.4,37.5-18.5,56.3c-0.4,1.2,0.5,2.4,1.7,2.4h294.1c1.2,0,2.1-1.2,1.7-2.4C524.3,598.9,518.3,580.1,512.2,561.3z"/>
	<path fill="none" stroke="#000000" stroke-width="14.2911" stroke-miterlimit="10" d="M552.3,351.3h-39.7v165.3h39.7
		c42.9,0,77.7-34.8,77.7-77.7v-10C630,386.1,595.2,351.3,552.3,351.3z"/>
</g>
<rect x="258.7" y="306.7" fill="#FFFFFF" width="246.9" height="62"/>
</svg>
